<svg id="レイヤー_1" xmlns="http://www.w3.org/2000/svg" width="167.3" height="49.9" viewBox="0 0 167.3 49.9">
  <g id="グループ_247">
    <g id="グループ_243">
      <path id="パス_843" d="M103.6,47.5V43h7.6V30h-6.5V25.4h16.7V30h-6V43H123v4.6H103.6Z" fill="#fff"/>
      <path id="パス_844" d="M143.8,48.7l-7.6-8.8a69.875,69.875,0,0,1-7.4,8.9l-3-3.1a64.881,64.881,0,0,0,11.7-16.3H127.2V25H144a75.844,75.844,0,0,1-5.4,11.1l8.4,9.7Z" fill="#fff"/>
      <path id="パス_845" d="M161.8,36.5a19.025,19.025,0,0,1-7.1,12.6L152,45.9a16.1,16.1,0,0,0,5.6-9.4h-9.4V32.3h19.1v4.2ZM150,29.2V25h15.4v4.2Z" fill="#fff"/>
    </g>
    <g id="グループ_245">
      <path id="パス_846" d="M20.2,46.8l-3.9-1.7a7.973,7.973,0,0,0,.7-3.4,5.247,5.247,0,0,0-1.4-3.9,4.974,4.974,0,0,0-3.8-1.5,7.569,7.569,0,0,0-1.5.1v3c.6-.9,1.2-1.8,1.8-2.6l3.7,2.1a35.97,35.97,0,0,1-9.9,11C1.9,48.7,0,46.1,0,42.3a9.575,9.575,0,0,1,1.8-5.6,10.746,10.746,0,0,1,4.6-3.6V30.9h-5V26.7h5V24.2h4v2.5h7.4v4.2H10.4v1.2c.5,0,1-.1,1.5-.1a9.194,9.194,0,0,1,6.8,2.7,9.914,9.914,0,0,1,2.6,6.9A14.621,14.621,0,0,1,20.2,46.8ZM6.4,41.7V38a5.262,5.262,0,0,0-2.2,4.3,3.775,3.775,0,0,0,1,2.7,24.958,24.958,0,0,0,3.2-3.3Z" fill="#fff"/>
      <path id="パス_5" d="M61.2,38c0,4.7-1.5,7.1-4.4,7.1a3.293,3.293,0,0,1-2.5-.8C53,43.1,52.4,41,52.4,38V24.1H48.2V38c0,4.1,1,7,3,8.9a7.959,7.959,0,0,0,5.5,2,7.519,7.519,0,0,0,5.5-2c2-1.9,3.1-4.8,3.1-8.9v-.6H61Z" fill="#fff"/>
      <g id="グループ_244">
        <path id="パス_847" d="M38.9,30.9V26.7H31.4V24.2h-4v2.5h-5v4.2h5v18h4v-18h7.5Z" fill="#fff"/>
        <path id="パス_848" d="M40.9,41.4c0,1.9-.7,2.7-2.4,2.7H34.9v4.3h3.6c4.2,0,6.7-2.7,6.7-7Z" fill="#fff"/>
        <path id="パス_849" d="M37.3,40.3a2.8,2.8,0,0,0,2.8-2.8,2.734,2.734,0,0,0-2.8-2.8,2.8,2.8,0,0,0,0,5.6Z" fill="#fff"/>
      </g>
    </g>
    <g id="グループ_246">
      <path id="パス_850" d="M98.8,42.4A6.985,6.985,0,0,1,89,43.5a11.408,11.408,0,0,1-1.1-1.1,9.176,9.176,0,0,1,0-11.5,6.985,6.985,0,0,1,9.8-1.1,11.408,11.408,0,0,1,1.1,1.1A9.176,9.176,0,0,1,98.8,42.4Zm-2.7-8.9a3.18,3.18,0,0,0-5.4,0,5.416,5.416,0,0,0,0,6.2,3.18,3.18,0,0,0,5.4,0,5.415,5.415,0,0,0,0-6.2Z" fill="#fff"/>
      <path id="パス_851" d="M81.8,30.3a6.474,6.474,0,0,0-4.9-1.9h-.2a6.474,6.474,0,0,0-4.9,1.9,7.28,7.28,0,0,0-1.9,5v9.4h3.9V35.3a4.069,4.069,0,0,1,.8-2.4,2.75,2.75,0,0,1,4-.2l.2.2a4.069,4.069,0,0,1,.8,2.4v9.4h4V35.3A6.133,6.133,0,0,0,81.8,30.3Z" fill="#fff"/>
    </g>
  </g>
  <g id="グループ_18" data-name="グループ 18">
    <g id="グループ_12" data-name="グループ 12">
      <g id="グループ_6" data-name="グループ 6">
        <path id="パス_1" data-name="パス 1" d="M64.8,5.6a3.259,3.259,0,0,0,.4-1.3,2.656,2.656,0,0,0-1.1-2.2,3.612,3.612,0,0,0-2.4-.7,6.8,6.8,0,0,0-2.1.4v9.4a10.4,10.4,0,0,0,2.1.3,4.277,4.277,0,0,0,2.8-.9A3.143,3.143,0,0,0,65.6,8,4.577,4.577,0,0,0,64.8,5.6ZM63.1,9.2a2.41,2.41,0,0,1-1.5.4h-.3V3.1l.5-.1a2.016,2.016,0,0,1,1.1.3,1.159,1.159,0,0,1,.4,1,1.974,1.974,0,0,1-.6,1.4,2.574,2.574,0,0,1,1,2.2A1.486,1.486,0,0,1,63.1,9.2Z" fill="#fff"/>
        <g id="グループ_1" data-name="グループ 1">
          <path id="パス_2" data-name="パス 2" d="M70.5,7.7l-.8-1.5,1.7-.8a1.268,1.268,0,0,0-.9-.4,2.168,2.168,0,0,0-1.4.5,2.168,2.168,0,0,0-.5,1.4,2.035,2.035,0,0,0,.6,1.5,2.477,2.477,0,0,0,1.4.8L70.3,11a4.179,4.179,0,0,1-2.4-1.4,3.541,3.541,0,0,1-1-2.6,3.392,3.392,0,0,1,1-2.6,3.541,3.541,0,0,1,2.6-1,2.723,2.723,0,0,1,2.1.9,6.854,6.854,0,0,1,1,2.1Z" fill="#fff"/>
        </g>
        <g id="グループ_2" data-name="グループ 2">
          <path id="パス_3" data-name="パス 3" d="M76.8,10.8a2.883,2.883,0,0,1-2-.7A2.2,2.2,0,0,1,74,8.3a2.323,2.323,0,0,1,.9-1.9,4.026,4.026,0,0,1,2-.8l.2,1.6a1.9,1.9,0,0,0-.9.3,1.02,1.02,0,0,0-.5.8.6.6,0,0,0,.3.6,1.445,1.445,0,0,0,.7.2,2.485,2.485,0,0,0,.8-.1V6.8c0-1.4-.6-2.2-1.9-2.3L76,2.8A3.519,3.519,0,0,1,78.5,4a4.551,4.551,0,0,1,.8,2.7v3.4A6.345,6.345,0,0,1,76.8,10.8Z" fill="#fff"/>
        </g>
        <g id="グループ_3" data-name="グループ 3">
          <path id="パス_4" data-name="パス 4" d="M85.8,10.1a3,3,0,0,1-1.8.6,2.94,2.94,0,0,1-2.2-.9A2.865,2.865,0,0,1,81,7.6V3.5h1.8V7.6a1.689,1.689,0,0,0,.3,1A.975.975,0,0,0,84,9a1.357,1.357,0,0,0,1.3-.7V3.5H87V8.7A3.325,3.325,0,0,1,85.8,10.1Z" fill="#fff"/>
        </g>
        <g id="グループ_4" data-name="グループ 4">
          <path id="パス_5-2" data-name="パス 5" d="M91.7,5.2V7.4a2.038,2.038,0,0,0,1.3,2L92.3,11a3.414,3.414,0,0,1-2-1.9,6.163,6.163,0,0,1-.4-2.6V5.1H88.4V3.5h1.5V1.7h1.8V3.5h1.4V5.2Z" fill="#fff"/>
        </g>
        <g id="グループ_5" data-name="グループ 5">
          <path id="パス_6" data-name="パス 6" d="M98,11.2a3.913,3.913,0,0,1-2.4,2.3L94.7,12a4.11,4.11,0,0,0,1.3-.8,3.162,3.162,0,0,0,.7-1.3L94.3,3.8l1.6-.7,1.7,4.6,1.5-4.5,1.6.6Z" fill="#fff"/>
        </g>
      </g>
      <g id="グループ_11" data-name="グループ 11">
        <g id="グループ_7" data-name="グループ 7">
          <path id="パス_7" data-name="パス 7" d="M33.6,9.7a3.738,3.738,0,0,1-2,1.2l-.5-1.7a1.7,1.7,0,0,0,1-.6,1.5,1.5,0,0,0,.4-1.1,1.729,1.729,0,0,0-.6-1.2l-1-1.1a2.716,2.716,0,0,1-.6-1.7,2.724,2.724,0,0,1,.7-2A3.328,3.328,0,0,1,32.9.4l.4,1.7a1.346,1.346,0,0,0-.9.5,1.613,1.613,0,0,0-.3.9,1.737,1.737,0,0,0,.6,1.1c.6.7,1,1.1,1,1.1a2.792,2.792,0,0,1,.6,1.8A2.928,2.928,0,0,1,33.6,9.7Z" fill="#fff"/>
        </g>
        <g id="グループ_8" data-name="グループ 8">
          <path id="パス_8" data-name="パス 8" d="M39.5,7.7l-.8-1.5,1.6-.7a.909.909,0,0,0-.8-.4,2.168,2.168,0,0,0-1.4.5A2.891,2.891,0,0,0,37.7,7a2.456,2.456,0,0,0,.5,1.5,2.477,2.477,0,0,0,1.4.8L39.3,11a4.179,4.179,0,0,1-2.4-1.4,4,4,0,0,1-1-2.6,3.429,3.429,0,0,1,3.6-3.6,2.629,2.629,0,0,1,2,.8,5.864,5.864,0,0,1,1,2.1Z" fill="#fff"/>
        </g>
        <g id="グループ_9" data-name="グループ 9">
          <rect id="長方形_1" data-name="長方形 1" width="1.7" height="9.7" transform="translate(43.7 0.8)" fill="#fff"/>
        </g>
        <g id="グループ_10" data-name="グループ 10">
          <path id="パス_9" data-name="パス 9" d="M50.3,5.3v5.3H48.6V5.3H47.1V3.5h1.5A4.136,4.136,0,0,1,49,1.4,2.809,2.809,0,0,1,50.6,0l.6,1.6c-.4.1-.6.4-.8.8a3.11,3.11,0,0,0-.1,1.1h1.5V5.2H50.3Z" fill="#fff"/>
        </g>
      </g>
    </g>
    <g id="グループ_17" data-name="グループ 17">
      <g id="グループ_13" data-name="グループ 13">
        <path id="パス_10" data-name="パス 10" d="M110.6,9.6a3.47,3.47,0,0,1-1.9,1.2l-.5-1.7a1.7,1.7,0,0,0,1-.6,1.5,1.5,0,0,0,.4-1.1,1.729,1.729,0,0,0-.6-1.2l-1-1.1a2.716,2.716,0,0,1-.6-1.7,2.883,2.883,0,0,1,.7-2A4.185,4.185,0,0,1,109.9.3l.4,1.7a1.346,1.346,0,0,0-.9.5,1.613,1.613,0,0,0-.3.9,1.737,1.737,0,0,0,.6,1.1c.6.7,1,1,1,1.1a2.716,2.716,0,0,1,.6,1.7A2.591,2.591,0,0,1,110.6,9.6Z" fill="#fff"/>
      </g>
      <g id="グループ_14" data-name="グループ 14">
        <path id="パス_11" data-name="パス 11" d="M115.4,10.7a2.566,2.566,0,0,1-2.7-2.5,2.323,2.323,0,0,1,.9-1.9,4.026,4.026,0,0,1,2-.8l.2,1.6a1.4,1.4,0,0,0-.9.3,1.02,1.02,0,0,0-.5.8.6.6,0,0,0,.3.6,1.445,1.445,0,0,0,.7.2,2.485,2.485,0,0,0,.8-.1V6.7c0-1.4-.6-2.1-1.9-2.2l.3-1.6A3.117,3.117,0,0,1,117,4.1a4.457,4.457,0,0,1,.8,2.6V10A5.594,5.594,0,0,1,115.4,10.7Z" fill="#fff"/>
      </g>
      <g id="グループ_15" data-name="グループ 15">
        <rect id="長方形_2" data-name="長方形 2" width="1.7" height="9.5" transform="translate(119.7 0.9)" fill="#fff"/>
      </g>
      <path id="パス_12" data-name="パス 12" d="M128.6,4.5a2.955,2.955,0,0,0-4.6,0,3.1,3.1,0,0,0-1,2.4,3.656,3.656,0,0,0,.9,2.5,2.955,2.955,0,0,0,4.6,0,3.656,3.656,0,0,0,.9-2.5A2.952,2.952,0,0,0,128.6,4.5Zm-1.2,3.8a1.425,1.425,0,0,1-1.2.6,1.306,1.306,0,0,1-1.2-.7,2.01,2.01,0,0,1-.4-1.3,2.01,2.01,0,0,1,.4-1.3,1.525,1.525,0,0,1,1.2-.7,1.425,1.425,0,0,1,1.2.6,2.01,2.01,0,0,1,.4,1.3A2.41,2.41,0,0,1,127.4,8.3Z" fill="#fff"/>
      <g id="グループ_16" data-name="グループ 16">
        <path id="パス_13" data-name="パス 13" d="M135,10.4v-4a1.689,1.689,0,0,0-.3-1,.975.975,0,0,0-.9-.4c-.5,0-.9.3-1.3.9v4.6h-1.7V5.4a3.126,3.126,0,0,1,3-2,2.865,2.865,0,0,1,2.1.8,3.3,3.3,0,0,1,.8,2.2v4.1H135Z" fill="#fff"/>
      </g>
    </g>
  </g>
</svg>
