<svg xmlns="http://www.w3.org/2000/svg" width="17.079" height="18.638" viewBox="0 0 17.079 18.638">
  <g id="グループ_185" data-name="グループ 185" transform="translate(-1182.502 -27.782)">
    <path id="パス_231" data-name="パス 231" d="M1198.016,45.393a7.747,7.747,0,0,0,1.565-2.047l-3.221-3.767s-1.591-.323-2.867,1.988a.938.938,0,0,1-.872.487c-.791-.063-2.256-.531-4.121-2.705s-2.093-3.7-2.032-4.492a.94.94,0,0,1,.616-.786c2.482-.9,2.409-2.523,2.409-2.523l-3.22-3.766a7.745,7.745,0,0,0-2.265,1.227,3.408,3.408,0,0,0-1.429,2.543c-.125,1.485-.561,4.954,3.556,9.788h0l.016.018.015.018h0c4.136,4.817,7.63,4.926,9.117,5.033A3.411,3.411,0,0,0,1198.016,45.393Z" fill="#d695a7"/>
  </g>
</svg>
