<svg xmlns="http://www.w3.org/2000/svg" width="60" height="78.025" viewBox="0 0 60 78.025">
  <g id="グループ_105" data-name="グループ 105" transform="translate(-1070.575 -1307.786)">
    <g id="グループ_102" data-name="グループ 102">
      <g id="グループ_101" data-name="グループ 101">
        <path id="パス_133" data-name="パス 133" d="M1081.857,1385.566a.336.336,0,0,1-.105-.245v-9.086a.367.367,0,0,1,.1-.259.329.329,0,0,1,.252-.1h4.326a4.054,4.054,0,0,1,2.646.728,2.555,2.555,0,0,1,.868,2.072,1.92,1.92,0,0,1-.357,1.162,2.3,2.3,0,0,1-.791.714,2.258,2.258,0,0,1,.966.833,2.289,2.289,0,0,1,.392,1.309,2.718,2.718,0,0,1-.931,2.2,4.031,4.031,0,0,1-2.667.784H1082.1A.335.335,0,0,1,1081.857,1385.566Zm4.277-5.817a1.079,1.079,0,0,0,.8-.28.983.983,0,0,0,.28-.728.957.957,0,0,0-.273-.707,1.092,1.092,0,0,0-.8-.273h-1.75v1.988Zm.126,4.032a1.116,1.116,0,0,0,.847-.315,1.162,1.162,0,0,0-.007-1.568,1.121,1.121,0,0,0-.84-.315h-1.876v2.2Z" fill="#fff"/>
        <path id="パス_134" data-name="パス 134" d="M1092.574,1384.845a3.692,3.692,0,0,1-1.218-2.842c-.01-.261-.014-.663-.014-1.2s0-.947.014-1.218a3.7,3.7,0,0,1,1.225-2.849,5.368,5.368,0,0,1,6.244,0,3.706,3.706,0,0,1,1.225,2.849q.027.811.027,1.218t-.027,1.2a3.711,3.711,0,0,1-1.211,2.842,5.562,5.562,0,0,1-6.265,0Zm4.3-1.575a1.951,1.951,0,0,0,.462-1.351c.018-.541.028-.929.028-1.162s-.01-.611-.028-1.134a1.951,1.951,0,0,0-.462-1.351,1.77,1.77,0,0,0-2.338,0,1.941,1.941,0,0,0-.462,1.351c-.01.261-.014.639-.014,1.134s0,.891.014,1.162a1.941,1.941,0,0,0,.462,1.351,1.77,1.77,0,0,0,2.338,0Z" fill="#fff"/>
        <path id="パス_135" data-name="パス 135" d="M1101.765,1385.566a.336.336,0,0,1-.1-.245v-9.086a.362.362,0,0,1,.1-.259.328.328,0,0,1,.252-.1h3.682a4.789,4.789,0,0,1,3.22.987,3.7,3.7,0,0,1,1.2,2.835q.014.406.014,1.078t-.014,1.064q-.141,3.836-4.354,3.836h-3.752A.335.335,0,0,1,1101.765,1385.566Zm3.927-1.995a1.775,1.775,0,0,0,1.3-.42,1.93,1.93,0,0,0,.448-1.344c.018-.271.028-.621.028-1.05s-.01-.775-.028-1.036a1.822,1.822,0,0,0-.483-1.323,1.886,1.886,0,0,0-1.337-.427h-1.33v5.6Z" fill="#fff"/>
        <path id="パス_136" data-name="パス 136" d="M1114.35,1385.566a.341.341,0,0,1-.1-.245v-2.982l-3.233-6.02a.3.3,0,0,1-.042-.154.313.313,0,0,1,.294-.294h1.847a.511.511,0,0,1,.322.1.633.633,0,0,1,.183.21l1.946,3.514,1.945-3.514a.635.635,0,0,1,.183-.21.511.511,0,0,1,.322-.1h1.847a.31.31,0,0,1,.294.294.285.285,0,0,1-.042.154l-3.233,6.02v2.982a.328.328,0,0,1-.105.252.37.37,0,0,1-.259.1H1114.6A.339.339,0,0,1,1114.35,1385.566Z" fill="#fff"/>
      </g>
    </g>
    <g id="グループ_104" data-name="グループ 104">
      <rect id="長方形_11" data-name="長方形 11" width="60" height="60" rx="5" transform="translate(1070.575 1307.786)" fill="#fff"/>
      <g id="グループ_103" data-name="グループ 103">
        <path id="パス_137" data-name="パス 137" d="M1100.575,1324.415a4.072,4.072,0,1,0-4.072-4.07A4.073,4.073,0,0,0,1100.575,1324.415Z" fill="#c2617c"/>
        <path id="パス_138" data-name="パス 138" d="M1110.274,1348.1l-4.219-9.921,1.4-7.082c.146-2.689-1.877-4.7-3.85-4.7h-6.069c-1.973,0-3.995,2.015-3.85,4.7l1.405,7.082-4.22,9.921a1.442,1.442,0,0,0,1.326,2.005h4.448l1.15,7.809a1.387,1.387,0,0,0,1.387,1.385h2.777a1.386,1.386,0,0,0,1.387-1.385l1.15-7.809h4.448a1.442,1.442,0,0,0,1.326-2.005Z" fill="#c2617c"/>
      </g>
    </g>
  </g>
</svg>
