<svg xmlns="http://www.w3.org/2000/svg" width="60" height="78.025" viewBox="0 0 60 78.025">
  <g id="グループ_110" data-name="グループ 110" transform="translate(-1160 -1307.786)">
    <g id="グループ_107" data-name="グループ 107">
      <g id="グループ_106" data-name="グループ 106">
        <path id="パス_139" data-name="パス 139" d="M1172.234,1385.566a.336.336,0,0,1-.1-.245v-9.086a.366.366,0,0,1,.1-.259.328.328,0,0,1,.252-.1h6.51a.359.359,0,0,1,.364.364v1.484a.328.328,0,0,1-.1.252.366.366,0,0,1-.259.1H1174.7v1.946h4a.359.359,0,0,1,.364.364v1.484a.328.328,0,0,1-.1.252.366.366,0,0,1-.259.1h-4v3.108a.35.35,0,0,1-.1.245.329.329,0,0,1-.252.1h-1.876A.336.336,0,0,1,1172.234,1385.566Z" fill="#fff"/>
        <path id="パス_140" data-name="パス 140" d="M1180.074,1385.58a.279.279,0,0,1-.091-.2.441.441,0,0,1,.014-.126l3.262-8.974a.546.546,0,0,1,.56-.406H1186a.546.546,0,0,1,.56.406l3.262,8.974a.435.435,0,0,1,.014.126.312.312,0,0,1-.294.294h-1.82a.486.486,0,0,1-.476-.308l-.5-1.358h-3.668l-.5,1.358a.486.486,0,0,1-.476.308h-1.82A.28.28,0,0,1,1180.074,1385.58Zm3.591-3.675h2.492l-1.246-3.57Z" fill="#fff"/>
        <path id="パス_141" data-name="パス 141" d="M1191.82,1384.845a3.689,3.689,0,0,1-1.211-2.828q-.015-.378-.014-1.232t.014-1.26a3.687,3.687,0,0,1,1.225-2.807,4.658,4.658,0,0,1,3.129-.987,5.821,5.821,0,0,1,2.233.406,3.614,3.614,0,0,1,1.561,1.176,3.111,3.111,0,0,1,.6,1.82.276.276,0,0,1-.091.21.309.309,0,0,1-.217.084h-1.988a.44.44,0,0,1-.287-.077.632.632,0,0,1-.161-.287,1.665,1.665,0,0,0-.595-.959,1.841,1.841,0,0,0-1.057-.273q-1.583,0-1.638,1.764c-.01.252-.014.639-.014,1.162s0,.919.014,1.19q.056,1.764,1.638,1.764a1.845,1.845,0,0,0,1.057-.28,1.6,1.6,0,0,0,.595-.952.524.524,0,0,1,.154-.287.471.471,0,0,1,.294-.077h1.988a.309.309,0,0,1,.217.084.276.276,0,0,1,.091.21,3.111,3.111,0,0,1-.6,1.82,3.614,3.614,0,0,1-1.561,1.176,5.821,5.821,0,0,1-2.233.406A4.712,4.712,0,0,1,1191.82,1384.845Z" fill="#fff"/>
        <path id="パス_142" data-name="パス 142" d="M1200.892,1385.566a.337.337,0,0,1-.1-.245v-9.086a.362.362,0,0,1,.1-.259.328.328,0,0,1,.252-.1h6.608a.359.359,0,0,1,.364.364v1.386a.329.329,0,0,1-.1.252.366.366,0,0,1-.259.1h-4.424v1.778h4.116a.359.359,0,0,1,.364.364v1.274a.359.359,0,0,1-.364.364h-4.116v1.82h4.536a.359.359,0,0,1,.364.364v1.386a.328.328,0,0,1-.1.252.368.368,0,0,1-.259.1h-6.72A.335.335,0,0,1,1200.892,1385.566Z" fill="#fff"/>
      </g>
    </g>
    <g id="グループ_109" data-name="グループ 109">
      <rect id="長方形_12" data-name="長方形 12" width="60" height="60" rx="5" transform="translate(1160 1307.786)" fill="#fff"/>
      <g id="グループ_108" data-name="グループ 108">
        <path id="パス_143" data-name="パス 143" d="M1200.253,1323a9.307,9.307,0,0,0-4.258-1.046,9.676,9.676,0,0,0-1.076.058,1.818,1.818,0,0,1-.342.042c-.322-.033.015-.032-.068-.056-.336-.1-.664-.258-1-.37a16.329,16.329,0,0,0-3.209-.723,14.833,14.833,0,0,0-10.82,3.076,18.529,18.529,0,0,0-6.106,8.324,17.23,17.23,0,0,0-.9,5.229,24.471,24.471,0,0,0,.528,6.376c1.056,4.677,4.412,9.771,9.453,10.75a5.62,5.62,0,0,0,1.026.117.8.8,0,0,0,.559-1.349,16.021,16.021,0,0,1-4.708-7.046c-.731-2.314-.956-5.335.43-7.475.81-1.251,2.433-1.422,3.793-1.542a26.234,26.234,0,0,0,5.784-.847,11.994,11.994,0,0,0,6.023-4.528,14.756,14.756,0,0,1,4.107,5.794,13.452,13.452,0,0,1-.251,9.938,16.776,16.776,0,0,1-3.772,5.706.8.8,0,0,0,.769,1.321,13.144,13.144,0,0,0,5.078-2.7,16.3,16.3,0,0,0,4.113-4.319,17.634,17.634,0,0,0,2.125-8.636C1207.648,1333.349,1205.787,1325.874,1200.253,1323Z" fill="#c2617c"/>
      </g>
    </g>
  </g>
</svg>
